<svg xmlns:dc="http://purl.org/dc/elements/1.1/" xmlns:cc="http://creativecommons.org/ns#" xmlns:rdf="http://www.w3.org/1999/02/22-rdf-syntax-ns#" xmlns:svg="http://www.w3.org/2000/svg" xmlns="http://www.w3.org/2000/svg" xmlns:sodipodi="http://sodipodi.sourceforge.net/DTD/sodipodi-0.dtd" xmlns:inkscape="http://www.inkscape.org/namespaces/inkscape" version="1.1" x="0px" y="0px" viewBox="0 0 100 125" style="" fill="#000000"><path style="font-size:medium;font-style:normal;font-variant:normal;font-weight:normal;font-stretch:normal;text-indent:0;text-align:start;text-decoration:none;line-height:normal;letter-spacing:normal;word-spacing:normal;text-transform:none;direction:ltr;block-progression:tb;writing-mode:lr-tb;text-anchor:start;baseline-shift:baseline;opacity:1;color:#000000;fill:#000000;fill-opacity:1;stroke:none;stroke-width:3.99999976000000010;marker:none;visibility:visible;display:inline;overflow:visible;enable-background:accumulate;font-family:Sans;-inkscape-font-specification:Sans" d="M 13 8 L 13 10 L 13 70 L 13 72 L 15 72 L 60 72 L 59 89.875 L 63 90.125 L 64 72 L 72 72 L 73 90.125 L 77 89.875 L 76 72 L 83 72 L 85 72 L 85 70 L 85 10 L 85 8 L 83 8 L 15 8 L 13 8 z M 17 12 L 29 12 L 29 24 L 17 24 L 17 12 z M 33 12 L 81 12 L 81 24 L 33 24 L 33 12 z M 17 28 L 29 28 L 29 68 L 17 68 L 17 28 z M 33 28 L 81 28 L 81 68 L 75.78125 68 L 74 35.875 L 70 36.125 L 71.78125 68 L 64.21875 68 L 66 36.125 L 62 35.875 L 60.21875 68 L 33 68 L 33 28 z "/><text x="0" y="115" fill="#000000" font-size="5px" font-weight="bold" font-family="'Helvetica Neue', Helvetica, Arial-Unicode, Arial, Sans-serif">Created by emma mitchell</text><text x="0" y="120" fill="#000000" font-size="5px" font-weight="bold" font-family="'Helvetica Neue', Helvetica, Arial-Unicode, Arial, Sans-serif">from the Noun Project</text></svg>