<svg xmlns:dc="http://purl.org/dc/elements/1.1/" xmlns:cc="http://creativecommons.org/ns#" xmlns:rdf="http://www.w3.org/1999/02/22-rdf-syntax-ns#" xmlns:svg="http://www.w3.org/2000/svg" xmlns="http://www.w3.org/2000/svg" xmlns:sodipodi="http://sodipodi.sourceforge.net/DTD/sodipodi-0.dtd" xmlns:inkscape="http://www.inkscape.org/namespaces/inkscape" viewBox="0 0 26.458333 33.0729175" version="1.1" x="0px" y="0px"><g transform="translate(0,-270.54165)"><path style="color:#000000;font-style:normal;font-variant:normal;font-weight:normal;font-stretch:normal;font-size:medium;line-height:normal;font-family:sans-serif;font-variant-ligatures:normal;font-variant-position:normal;font-variant-caps:normal;font-variant-numeric:normal;font-variant-alternates:normal;font-feature-settings:normal;text-indent:0;text-align:start;text-decoration:none;text-decoration-line:none;text-decoration-style:solid;text-decoration-color:#000000;letter-spacing:normal;word-spacing:normal;text-transform:none;writing-mode:lr-tb;direction:ltr;text-orientation:mixed;dominant-baseline:auto;baseline-shift:baseline;text-anchor:start;white-space:normal;shape-padding:0;clip-rule:nonzero;display:inline;overflow:visible;visibility:visible;opacity:1;isolation:auto;mix-blend-mode:normal;color-interpolation:sRGB;color-interpolation-filters:linearRGB;solid-color:#000000;solid-opacity:1;vector-effect:none;fill:#000000;fill-opacity:1;fill-rule:nonzero;stroke:none;stroke-width:3.99999976;stroke-linecap:round;stroke-linejoin:round;stroke-miterlimit:4;stroke-dasharray:none;stroke-dashoffset:0;stroke-opacity:1;paint-order:stroke fill markers;color-rendering:auto;image-rendering:auto;shape-rendering:auto;text-rendering:auto;enable-background:accumulate" d="M 50.189453,7.984375 C 29.251785,7.9805955 8.2511491,18.638343 8.0019531,39.962891 l -0.09375,8.050781 H 5 c -1.1045238,1.1e-4 -1.9998896,0.895476 -2,2 v 15 c 1.104e-4,1.104524 0.8954762,1.99989 2,2 H 8 V 85 c 0,3.843402 3.156593,7 7,7 h 70 c 3.843405,0 7,-3.156598 7,-7 V 67.013672 h 3 c 1.104524,-1.1e-4 1.99989,-0.895476 2,-2 v -15 c -1.1e-4,-1.104524 -0.895476,-1.99989 -2,-2 h -3 v -8.029297 c 4e-6,-21.325531 -20.872879,-31.9944063 -41.810547,-32 z m -0.0293,4.001953 C 69.105639,11.978769 88.000004,21.309918 88,39.984375 v 8.029297 H 11.90625 l 0.09766,-8.00586 C 12.222129,21.333885 31.214678,11.9923 50.160156,11.986328 Z m 8.382813,40.023438 H 81.455078 L 69.996094,71.105469 Z M 7,52.013672 h 46.875 l 6.597656,11 H 50 c -1.087956,0 -2,1.112802 -2,2 V 72.5 C 48,75.986661 46.000001,78 42.5,78 39.418404,78 37,75.5816 37,72.5 l -0.002,-7.498047 c 0.01653,-1.127524 -0.901773,-2.045822 -2.029297,-2.029297 -1.10534,0.0151 -1.98884,0.923972 -1.972656,2.029297 C 32.999341,69.000001 32.000001,73.000001 27.5,73 23,73 22,69.000001 22,65.013672 c 0,-1.127815 -1.087039,-2 -2,-2 H 7 Z m 79.125,0 H 93 v 11 H 79.525391 Z m -74.125,15 h 6 C 18,74.000001 23,77 27.5,77 29.785729,77 31.808141,76.078486 33.451172,74.722656 34.480156,78.855003 38.058991,82 42.5,82 47.728402,82 52,77.728409 52,72.5 v -5.486328 h 10.873047 l 5.410156,9.017578 c 0.856688,1.427916 2.683161,1.247646 3.431641,0 L 77.125,67.013672 H 88 V 85 c 0,1.69663 -1.303389,3 -3,3 H 15 c -1.696609,0 -3,-1.30337 -3,-3 z" transform="matrix(0.26458333,0,0,0.26458333,0,270.54165)"/><path style="opacity:1;fill:#000000;fill-opacity:1;stroke:none;stroke-width:1.05833328;stroke-linecap:round;stroke-linejoin:round;stroke-miterlimit:4;stroke-dasharray:none;stroke-dashoffset:0;stroke-opacity:1;paint-order:stroke fill markers" d="m 13.754694,275.83167 a 0.5291667,0.5291667 0 0 1 -0.529166,0.52916 0.5291667,0.5291667 0 0 1 -0.529167,-0.52916 0.5291667,0.5291667 0 0 1 0.529167,-0.52917 0.5291667,0.5291667 0 0 1 0.529166,0.52917 z"/><path style="opacity:1;fill:#000000;fill-opacity:1;stroke:none;stroke-width:1.05833328;stroke-linecap:round;stroke-linejoin:round;stroke-miterlimit:4;stroke-dasharray:none;stroke-dashoffset:0;stroke-opacity:1;paint-order:stroke fill markers" d="m 7.2806706,278.47336 a 0.5291667,0.5291667 0 0 1 -0.5291667,0.52916 0.5291667,0.5291667 0 0 1 -0.5291667,-0.52916 0.5291667,0.5291667 0 0 1 0.5291667,-0.52917 0.5291667,0.5291667 0 0 1 0.5291667,0.52917 z"/><path style="opacity:1;fill:#000000;fill-opacity:1;stroke:none;stroke-width:1.05833328;stroke-linecap:round;stroke-linejoin:round;stroke-miterlimit:4;stroke-dasharray:none;stroke-dashoffset:0;stroke-opacity:1;paint-order:stroke fill markers" d="m 11.114045,281.11923 a 0.5291667,0.5291667 0 0 1 -0.529167,0.52917 0.5291667,0.5291667 0 0 1 -0.529167,-0.52917 0.5291667,0.5291667 0 0 1 0.529167,-0.52916 0.5291667,0.5291667 0 0 1 0.529167,0.52916 z"/><path style="opacity:1;fill:#000000;fill-opacity:1;stroke:none;stroke-width:1.05833328;stroke-linecap:round;stroke-linejoin:round;stroke-miterlimit:4;stroke-dasharray:none;stroke-dashoffset:0;stroke-opacity:1;paint-order:stroke fill markers" d="m 16.403545,281.11923 a 0.5291667,0.5291667 0 0 1 -0.529167,0.52917 0.5291667,0.5291667 0 0 1 -0.529166,-0.52917 0.5291667,0.5291667 0 0 1 0.529166,-0.52916 0.5291667,0.5291667 0 0 1 0.529167,0.52916 z"/><path style="opacity:1;fill:#000000;fill-opacity:1;stroke:none;stroke-width:1.05833328;stroke-linecap:round;stroke-linejoin:round;stroke-miterlimit:4;stroke-dasharray:none;stroke-dashoffset:0;stroke-opacity:1;paint-order:stroke fill markers" d="m 20.369279,278.47748 a 0.5291667,0.5291667 0 0 1 -0.529166,0.52916 0.5291667,0.5291667 0 0 1 -0.529167,-0.52916 0.5291667,0.5291667 0 0 1 0.529167,-0.52917 0.5291667,0.5291667 0 0 1 0.529166,0.52917 z"/></g><text x="0" y="41.458334" fill="#000000" font-size="5px" font-weight="bold" font-family="'Helvetica Neue', Helvetica, Arial-Unicode, Arial, Sans-serif">Created by Sholawat Nariyah</text><text x="0" y="46.458334" fill="#000000" font-size="5px" font-weight="bold" font-family="'Helvetica Neue', Helvetica, Arial-Unicode, Arial, Sans-serif">from the Noun Project</text></svg>