<svg xmlns="http://www.w3.org/2000/svg" xmlns:xlink="http://www.w3.org/1999/xlink" version="1.0" x="0px" y="0px" viewBox="0 0 100 125" enable-background="new 0 0 100 100" xml:space="preserve"><path fill="#000000" d="M71.286,35.908H52.499V23.415l11.34-8.92l-3.091-3.93l-12.295,9.671c-0.603,0.474-0.954,1.198-0.954,1.965  v13.708H28.711c-1.381,0-2.5,1.119-2.5,2.5s1.119,2.5,2.5,2.5h18.788v2.042H31.331c-0.725,0-1.415,0.314-1.89,0.863  c-0.475,0.548-0.688,1.275-0.585,1.993l6.224,43.211c0.177,1.23,1.231,2.144,2.475,2.144h24.891c1.243,0,2.297-0.913,2.475-2.144  l6.221-43.211c0.104-0.718-0.11-1.445-0.585-1.993c-0.476-0.549-1.165-0.863-1.89-0.863H52.498v-2.042h18.788  c1.381,0,2.5-1.119,2.5-2.5S72.667,35.908,71.286,35.908z M65.78,47.95l-5.501,38.211H39.72L34.217,47.95h13.282l0,35.667h5V47.95  H65.78z"/><text x="0" y="115" fill="#000000" font-size="5px" font-weight="bold" font-family="'Helvetica Neue', Helvetica, Arial-Unicode, Arial, Sans-serif">Created by Ema Dimitrova</text><text x="0" y="120" fill="#000000" font-size="5px" font-weight="bold" font-family="'Helvetica Neue', Helvetica, Arial-Unicode, Arial, Sans-serif">from the Noun Project</text></svg>