<svg xmlns="http://www.w3.org/2000/svg" viewBox="0 0 47.58 80.6"><title>drink</title><g id="Layer_2" data-name="Layer 2"><g id="Layer_1-2" data-name="Layer 1"><path d="M45.08,25.34H26.29V12.85L37.63,3.93,34.54,0,22.24,9.67a2.52,2.52,0,0,0-.95,2v13.7H2.5a2.5,2.5,0,0,0,0,5H21.29v2.05H5.12a2.48,2.48,0,0,0-1.89.86,2.45,2.45,0,0,0-.58,2L8.87,78.45a2.51,2.51,0,0,0,2.47,2.15H36.23a2.51,2.51,0,0,0,2.48-2.15l6.22-43.21a2.49,2.49,0,0,0-2.47-2.85H26.29V30.34H45.08a2.5,2.5,0,0,0,0-5ZM39.57,37.39,34.07,75.6H13.51L8,37.39H21.29V73.05h5V37.39Z"/></g></g></svg>