<svg xmlns="http://www.w3.org/2000/svg" viewBox="0 0 93.32 83.49"><title>history</title><g id="Layer_2" data-name="Layer 2"><g id="Layer_1-2" data-name="Layer 1"><path d="M66.17,41.07h-13V18.85a3.27,3.27,0,1,0-6.54,0V44.34a3.27,3.27,0,0,0,3.27,3.27H66.17a3.27,3.27,0,0,0,0-6.54Z"/><path d="M81.11,12.21A41.75,41.75,0,0,0,9.93,38.88L5.67,34.29a3.28,3.28,0,0,0-4.8,4.46L10.35,49a3.24,3.24,0,0,0,2.4,1A3.28,3.28,0,0,0,15,49.13l10.2-9.48a3.27,3.27,0,0,0-4.45-4.8l-4.19,3.88a35.15,35.15,0,1,1,10.15,27.9,3.27,3.27,0,1,0-4.63,4.63,41.75,41.75,0,0,0,59.05-59Z"/></g></g></svg>