<svg xmlns="http://www.w3.org/2000/svg" xmlns:xlink="http://www.w3.org/1999/xlink" version="1.1" x="0px" y="0px" viewBox="0 0 91 113.75" enable-background="new 0 0 91 91" xml:space="preserve"><g><path d="M35.721,16.355c-0.664-0.664-1.74-0.662-2.404,0.002c-3.178,3.182-3.178,8.354,0,11.529   c0.002,0.002,0.004,0.004,0.006,0.006s0.004,0.004,0.006,0.006c1.855,1.863,1.859,4.883,0.01,6.73   c-0.666,0.664-0.666,1.74-0.002,2.404c0.332,0.332,0.768,0.498,1.203,0.498c0.434,0,0.869-0.166,1.201-0.496   c3.176-3.172,3.174-8.348-0.004-11.537c-0.004-0.004-0.01-0.006-0.016-0.012c-0.002-0.002-0.004-0.006-0.006-0.01   c-1.848-1.852-1.846-4.863,0.006-6.717C36.385,18.095,36.385,17.019,35.721,16.355z"/><path d="M46.879,16.355c-0.664-0.662-1.74-0.662-2.404,0.002c-1.541,1.541-2.389,3.59-2.389,5.766c0,2.164,0.838,4.197,2.359,5.734   c0.014,0.016,0.027,0.029,0.043,0.043v0.002c1.855,1.861,1.859,4.877,0.008,6.727c-0.664,0.664-0.664,1.74,0,2.404   c0.332,0.332,0.768,0.498,1.201,0.498c0.436,0,0.871-0.166,1.203-0.496c3.143-3.143,3.168-8.24,0.086-11.434   c-0.002-0.002-0.002-0.004-0.004-0.008c-0.033-0.037-0.066-0.074-0.104-0.111l0,0c-0.898-0.896-1.393-2.09-1.393-3.359   c0-1.268,0.494-2.463,1.395-3.363C47.545,18.095,47.543,17.019,46.879,16.355z"/><path d="M58.039,16.355c-0.664-0.662-1.74-0.662-2.404,0.002c-1.541,1.541-2.391,3.59-2.391,5.766c0,2.162,0.838,4.197,2.359,5.732   c0.006,0.008,0.016,0.014,0.023,0.021c0.008,0.006,0.012,0.016,0.02,0.023c1.855,1.861,1.859,4.879,0.008,6.729   c-0.664,0.664-0.664,1.74,0,2.404c0.332,0.332,0.766,0.498,1.201,0.498s0.871-0.166,1.201-0.496   c3.162-3.158,3.172-8.297,0.041-11.488c-0.004-0.004-0.006-0.008-0.008-0.012c-0.018-0.018-0.033-0.035-0.051-0.053   c-0.898-0.896-1.395-2.09-1.395-3.359c0-1.268,0.496-2.463,1.396-3.363C58.703,18.095,58.703,17.019,58.039,16.355z"/><path d="M11.928,44.621c1.398,11.115,8.254,20.826,18.113,25.941v6.563h25.438c3.225,0,5.848-2.625,5.848-5.85v-0.713   c9.861-5.115,16.715-14.826,18.115-25.941l0.24-1.914H11.688L11.928,44.621z M75.764,46.107   c-1.889,9.881-8.59,18.307-17.877,22.342h-5.443v3.4h5.406c-0.258,1.072-1.221,1.875-2.371,1.875H33.441V71.85h6.375v-3.4h-6.334   c-9.287-4.035-15.988-12.459-17.879-22.342H75.764z"/><path d="M60.627,62.555c0.271,0,0.547-0.066,0.801-0.203c4.197-2.246,7.271-6.172,8.432-10.771c0.23-0.91-0.32-1.836-1.23-2.064   c-0.912-0.23-1.836,0.32-2.066,1.23c-0.928,3.676-3.383,6.813-6.738,8.609c-0.828,0.443-1.141,1.473-0.697,2.301   C59.434,62.229,60.021,62.555,60.627,62.555z"/><circle cx="56.512" cy="63.219" r="2.016"/></g><text x="0" y="106" fill="#000000" font-size="5px" font-weight="bold" font-family="'Helvetica Neue', Helvetica, Arial-Unicode, Arial, Sans-serif">Created by BomSymbols</text><text x="0" y="111" fill="#000000" font-size="5px" font-weight="bold" font-family="'Helvetica Neue', Helvetica, Arial-Unicode, Arial, Sans-serif">from the Noun Project</text></svg>