<svg xmlns="http://www.w3.org/2000/svg" viewBox="0 0 438.12 423"><title>trolley</title><g id="Layer_2" data-name="Layer 2"><g id="Layer_1-2" data-name="Layer 1"><path d="M11.25,0h76l23,91h316a11.66,11.66,0,0,1,11,16l-64,136c-2,4-7,7-12,7h-230c-23,3-19,42-3,45h231c15,0,15,23,0,23h-232c-40,0-50-78-5-89l-52-206h-59C-3.75,23-3.75,0,11.25,0Zm105,113,29,114h210l54-113Z"/><path d="M157.25,333c24,0,44,20,44,45s-20,45-44,45a45,45,0,0,1,0-90Zm0,23c-13,0-23,10-23,22s10,22,23,22a22,22,0,0,0,0-44Z"/><path d="M322.25,333c24,0,44,20,44,45s-20,45-44,45a45,45,0,0,1,0-90Zm0,23c-13,0-23,10-23,22s10,22,23,22a22,22,0,0,0,0-44Z"/></g></g></svg>