<svg xmlns="http://www.w3.org/2000/svg" xmlns:xlink="http://www.w3.org/1999/xlink" xml:space="preserve" version="1.1" style="shape-rendering:geometricPrecision;text-rendering:geometricPrecision;image-rendering:optimizeQuality;" viewBox="0 0 438 528.75" x="0px" y="0px" fill-rule="evenodd" clip-rule="evenodd"><defs><style type="text/css">
   
    .fil0 {fill:black;fill-rule:nonzero}
   
  </style></defs><g><path class="fil0" d="M11 0l76 0 23 91 316 0c9,0 14,9 11,16l-64 136c-2,4 -7,7 -12,7l-230 0c-23,3 -19,42 -3,45l231 0c15,0 15,23 0,23l-232 0c-40,0 -50,-78 -5,-89l-52 -206 -59 0c-15,0 -15,-23 0,-23zm105 113l29 114 210 0 54 -113 -293 -1z"/><path class="fil0" d="M157 333c24,0 44,20 44,45 0,25 -20,45 -44,45 -25,0 -45,-20 -45,-45 0,-25 20,-45 45,-45zm0 23c-13,0 -23,10 -23,22 0,12 10,22 23,22 12,0 22,-10 22,-22 0,-12 -10,-22 -22,-22z"/><path class="fil0" d="M322 333c24,0 44,20 44,45 0,25 -20,45 -44,45 -25,0 -45,-20 -45,-45 0,-25 20,-45 45,-45zm0 23c-13,0 -23,10 -23,22 0,12 10,22 23,22 12,0 22,-10 22,-22 0,-12 -10,-22 -22,-22z"/></g><text x="0" y="438" fill="#000000" font-size="5px" font-weight="bold" font-family="'Helvetica Neue', Helvetica, Arial-Unicode, Arial, Sans-serif">Created by Saifurrijal</text><text x="0" y="443" fill="#000000" font-size="5px" font-weight="bold" font-family="'Helvetica Neue', Helvetica, Arial-Unicode, Arial, Sans-serif">from the Noun Project</text></svg>