<svg xmlns="http://www.w3.org/2000/svg" viewBox="0 0 24.87 22.23"><title>burger</title><g id="Layer_2" data-name="Layer 2"><g id="Layer_1-2" data-name="Layer 1"><path d="M12.49,0C7,0,1.39,2.82,1.32,8.46l0,2.13H.53a.53.53,0,0,0-.53.53v4a.53.53,0,0,0,.53.53h.79v4.76a1.87,1.87,0,0,0,1.85,1.85H21.7a1.87,1.87,0,0,0,1.85-1.85V15.62h.79a.53.53,0,0,0,.53-.53v-4a.53.53,0,0,0-.53-.53h-.79V8.47C23.55,2.82,18,0,12.49,0Zm0,1.06c5,0,10,2.47,10,7.41v2.12H2.36l0-2.12C2.44,3.53,7.47,1.06,12.48,1.06ZM14.7,11.65h6.06l-3,5Zm-13.64,0h12.4l1.75,2.91H12.44a.57.57,0,0,0-.53.53v2a1.32,1.32,0,0,1-1.46,1.45A1.43,1.43,0,0,1,9,17.07v-2a.53.53,0,0,0-.54-.54.52.52,0,0,0-.52.54c0,1.05-.27,2.11-1.46,2.11S5,16.14,5,15.09a.56.56,0,0,0-.53-.53H1.06Zm20.93,0h1.82v2.91H20.25Zm-19.61,4H4a2.48,2.48,0,0,0,4.09,2,2.48,2.48,0,0,0,2.39,1.92A2.52,2.52,0,0,0,13,17.07V15.62h2.88L17.27,18a.52.52,0,0,0,.91,0l1.43-2.38h2.88v4.76a.78.78,0,0,1-.79.79H3.17a.78.78,0,0,1-.79-.79Z"/><path d="M13,3.18a.53.53,0,0,1-.53.53h0a.53.53,0,0,1-.53-.53h0a.53.53,0,0,1,.53-.53h0a.53.53,0,0,1,.53.53Z"/><path d="M6.49,5.82A.53.53,0,0,1,6,6.35H6a.53.53,0,0,1-.53-.53h0A.53.53,0,0,1,6,5.29H6a.53.53,0,0,1,.53.53Z"/><path d="M10.32,8.47A.52.52,0,0,1,9.79,9h0a.52.52,0,0,1-.53-.52h0a.53.53,0,0,1,.53-.53h0a.53.53,0,0,1,.53.53Z"/><path d="M15.61,8.47a.52.52,0,0,1-.53.52h0a.52.52,0,0,1-.53-.52h0a.53.53,0,0,1,.53-.53h0a.53.53,0,0,1,.53.53Z"/><path d="M19.58,5.82a.53.53,0,0,1-.53.53h0a.52.52,0,0,1-.53-.53h0a.53.53,0,0,1,.53-.53h0a.53.53,0,0,1,.53.53Z"/></g></g></svg>